# xmcd
#
# Track frame offsets:
#	150
#	18577
#	33664
#	49389
#	64481
#	84603
#	104869
#	123163
#	138184
#	153748
#	168824
#	189074
#
# Disc length: 2793 seconds
#
# Revision: 0
# Processed by: cddbd v1.5.1PL2 Copyright (c) Steve Scherf et al.
# Submitted via: audiograbber 1.83.01
#
DISCID=a60ae70c
DTITLE=Montgomery Gentry - Cb20276
DYEAR=1900
DGENRE=Country
TTITLE0=Montgomery Gentry (Vocal) -  She Couldn't Change Me
TTITLE1=Kershaw, Sammy and Morgan, Lorrie (Vocal) -  He Drinks Tequila
TTITLE2=Walker, Clay (Vocal) -  Say No More
TTITLE3=Morgan, Craig (Vocal) -  I Want Us Back
TTITLE4=Chesney, Kenny (Vocal) -  For The First Time
TTITLE5=Soggy Bottom Boys (Vocal) -  I Am A Man Of Constant Sorrow
TTITLE6=Montgomery Gentry  -  She Couldn't Change Me
TTITLE7=Kershaw, Sammy and Morgan, Lorrie  -  He Drinks Tequila
TTITLE8=Walker, Clay  -  Say No More
TTITLE9=Morgan, Craig  -  I Want Us Back
TTITLE10=Chesney, Kenny  -  For The First Time
TTITLE11=Soggy Bottom Boys  -  I Am A Man Of Constant Sorrow
EXTD=
EXTT0=
EXTT1=
EXTT2=
EXTT3=
EXTT4=
EXTT5=
EXTT6=
EXTT7=
EXTT8=
EXTT9=
EXTT10=
EXTT11=
PLAYORDER=
